<?xml version="1.0" encoding="UTF-8"?>
<!-- Generator: visioncortex VTracer 0.6.4 -->
<svg version="1.1" xmlns="http://www.w3.org/2000/svg" width="400" height="400">
<path d="M0 0 C4.29 0 8.58 0 13 0 C13 18.15 13 36.3 13 55 C-14.06 55 -41.12 55 -69 55 C-69 42 -69 42 -68 41 C-65.91 40.91 -63.82 40.88 -61.74 40.89 C-60.76 40.89 -60.76 40.89 -59.76 40.89 C-57.59 40.89 -55.42 40.89 -53.25 40.9 C-51.75 40.9 -50.24 40.91 -48.74 40.91 C-44.79 40.91 -40.83 40.92 -36.87 40.93 C-32.84 40.94 -28.8 40.95 -24.77 40.95 C-16.85 40.96 -8.92 40.98 -1 41 C-1.01 39.79 -1.01 38.59 -1.02 37.34 C-1.03 32.88 -1.05 28.42 -1.05 23.97 C-1.06 22.03 -1.07 20.1 -1.08 18.17 C-1.09 15.39 -1.09 12.62 -1.1 9.85 C-1.1 8.98 -1.11 8.11 -1.11 7.21 C-1.11 5.14 -1.06 3.07 -1 1 C-0.67 0.67 -0.34 0.34 0 0 Z " fill="#FEFEFE" transform="translate(294,238)"/>
<path d="M0 0 C4.29 0 8.58 0 13 0 C14 1 14 1 14.11 4.79 C14.11 6.47 14.11 8.16 14.1 9.85 C14.1 10.73 14.09 11.62 14.09 12.53 C14.09 15.38 14.08 18.22 14.06 21.06 C14.06 22.99 14.05 24.91 14.05 26.83 C14.04 31.55 14.02 36.28 14 41 C14.84 41 15.67 41 16.54 40.99 C24.41 40.97 32.28 40.96 40.16 40.95 C44.2 40.94 48.25 40.94 52.3 40.92 C56.2 40.91 60.11 40.91 64.01 40.91 C65.5 40.9 66.99 40.9 68.49 40.89 C70.57 40.89 72.65 40.89 74.74 40.89 C75.92 40.88 77.11 40.88 78.34 40.88 C81 41 81 41 82 42 C82 46.29 82 50.58 82 55 C54.94 55 27.88 55 0 55 C0 36.85 0 18.7 0 0 Z " fill="#FEFEFE" transform="translate(92,238)"/>
<path d="M0 0 C27.06 0 54.12 0 82 0 C82.02 8.89 82.04 17.78 82.06 26.94 C82.07 29.75 82.08 32.56 82.09 35.45 C82.09 37.67 82.1 39.88 82.1 42.09 C82.1 43.25 82.11 44.41 82.11 45.61 C82.11 47.25 82.11 47.25 82.11 48.93 C82.12 49.89 82.12 50.84 82.12 51.83 C82 54 82 54 81 55 C79.19 55.1 77.38 55.13 75.56 55.12 C74.57 55.13 73.59 55.13 72.57 55.13 C70 55 70 55 68 54 C68 40.8 68 27.6 68 14 C63.18 14.01 58.35 14.02 53.38 14.04 C50.33 14.04 47.28 14.05 44.23 14.05 C39.39 14.05 34.54 14.06 29.7 14.08 C25.8 14.09 21.89 14.09 17.99 14.09 C16.5 14.1 15.01 14.1 13.51 14.11 C11.43 14.11 9.35 14.11 7.26 14.11 C6.08 14.12 4.89 14.12 3.66 14.12 C1 14 1 14 0 13 C0 8.71 0 4.42 0 0 Z " fill="#FEFEFE" transform="translate(225,106)"/>
<path d="M0 0 C27.06 0 54.12 0 82 0 C82 4.29 82 8.58 82 13 C81 14 81 14 78.34 14.12 C76.55 14.12 76.55 14.12 74.74 14.11 C73.76 14.11 73.76 14.11 72.76 14.11 C70.59 14.11 68.42 14.11 66.25 14.1 C64.75 14.1 63.24 14.09 61.74 14.09 C57.79 14.09 53.83 14.08 49.87 14.07 C45.13 14.06 40.38 14.05 35.64 14.05 C28.43 14.04 21.21 14.02 14 14 C14 27.2 14 40.4 14 54 C11.38 55.31 9.36 55.13 6.44 55.12 C5.45 55.13 4.45 55.13 3.43 55.13 C1 55 1 55 0 54 C-0.09 52.31 -0.12 50.62 -0.11 48.93 C-0.11 47.83 -0.11 46.74 -0.11 45.61 C-0.11 44.45 -0.1 43.29 -0.1 42.09 C-0.1 41.03 -0.1 39.97 -0.09 38.88 C-0.09 34.9 -0.08 30.92 -0.06 26.94 C-0.04 18.05 -0.02 9.16 0 0 Z " fill="#FEFEFE" transform="translate(92,106)"/>
<path d="M0 0 C1.09 0 2.19 0.01 3.31 0.01 C4.41 0.01 5.5 0 6.62 0 C9.31 0.13 9.31 0.13 10.31 1.13 C10.41 3.28 10.43 5.43 10.43 7.58 C10.43 8.25 10.43 8.93 10.43 9.62 C10.43 11.85 10.42 14.09 10.41 16.32 C10.41 17.87 10.41 19.42 10.41 20.96 C10.4 25.04 10.39 29.11 10.38 33.19 C10.37 38.07 10.36 42.96 10.36 47.84 C10.35 55.27 10.33 62.7 10.31 70.13 C23.84 70.13 37.37 70.13 51.31 70.13 C51.31 74.09 51.31 78.05 51.31 82.13 C49.66 83.78 47.73 83.26 45.46 83.26 C44.42 83.27 43.39 83.27 42.32 83.27 C40.63 83.27 40.63 83.27 38.91 83.27 C37.76 83.27 36.61 83.27 35.43 83.27 C33 83.27 30.56 83.27 28.13 83.26 C24.39 83.26 20.66 83.26 16.92 83.27 C14.57 83.27 12.21 83.27 9.85 83.27 C8.72 83.27 7.6 83.27 6.44 83.27 C5.4 83.27 4.37 83.27 3.3 83.26 C2.38 83.26 1.46 83.26 0.52 83.26 C-1.69 83.13 -1.69 83.13 -3.69 82.13 C-3.71 71.59 -3.73 61.05 -3.74 50.5 C-3.74 45.61 -3.75 40.71 -3.76 35.82 C-3.77 31.09 -3.78 26.37 -3.78 21.65 C-3.78 19.85 -3.79 18.04 -3.79 16.24 C-3.8 13.72 -3.8 11.2 -3.8 8.68 C-3.8 7.93 -3.81 7.17 -3.81 6.4 C-3.8 0.19 -3.8 0.19 0 0 Z " fill="#FEFEFE" transform="translate(175.6875,157.8671875)"/>
</svg>
